<svg viewBox="0 0 330 200" xmlns="http://www.w3.org/2000/svg"><g><g><g><g><g><line x1="80" y1="178" x2="75" y2="178" style="visibility: inherit;" fill="rgb(0, 0, 0)" stroke="rgb(204, 204, 204)" stroke-width="1px"></line><line x1="80" y1="158.22222222222223" x2="75" y2="158.22222222222223" style="visibility: inherit;" fill="rgb(0, 0, 0)" stroke="rgb(204, 204, 204)" stroke-width="1px"></line><line x1="80" y1="138.44444444444446" x2="75" y2="138.44444444444446" style="visibility: inherit;" fill="rgb(0, 0, 0)" stroke="rgb(204, 204, 204)" stroke-width="1px"></line><line x1="80" y1="118.66666666666667" x2="75" y2="118.66666666666667" style="visibility: inherit;" fill="rgb(0, 0, 0)" stroke="rgb(204, 204, 204)" stroke-width="1px"></line><line x1="80" y1="98.8888888888889" x2="75" y2="98.8888888888889" style="visibility: inherit;" fill="rgb(0, 0, 0)" stroke="rgb(204, 204, 204)" stroke-width="1px"></line><line x1="80" y1="79.1111111111111" x2="75" y2="79.1111111111111" style="visibility: inherit;" fill="rgb(0, 0, 0)" stroke="rgb(204, 204, 204)" stroke-width="1px"></line><line x1="80" y1="59.33333333333334" x2="75" y2="59.33333333333334" style="visibility: inherit;" fill="rgb(0, 0, 0)" stroke="rgb(204, 204, 204)" stroke-width="1px"></line><line x1="80" y1="39.55555555555554" x2="75" y2="39.55555555555554" style="visibility: inherit;" fill="rgb(0, 0, 0)" stroke="rgb(204, 204, 204)" stroke-width="1px"></line><line x1="80" y1="19.7777777777778" x2="75" y2="19.7777777777778" style="visibility: inherit;" fill="rgb(0, 0, 0)" stroke="rgb(204, 204, 204)" stroke-width="1px"></line><line x1="80" y1="0" x2="75" y2="0" style="visibility: inherit;" fill="rgb(0, 0, 0)" stroke="rgb(204, 204, 204)" stroke-width="1px"></line></g><g transform="translate(70, 0)"><text x="0" y="178" dx="0em" dy="0.3em" style="text-anchor: end; visibility: hidden; font-family: &quot;Helvetica Neue&quot;, sans-serif; font-size: 12px; font-weight: 200;" fill="rgb(50, 49, 63)" stroke="none" stroke-width="1px">-1.6e+3</text><text x="0" y="158.22222222222223" dx="0em" dy="0.3em" style="text-anchor: end; visibility: inherit; font-family: &quot;Helvetica Neue&quot;, sans-serif; font-size: 12px; font-weight: 200;" fill="rgb(50, 49, 63)" stroke="none" stroke-width="1px">-1.4e+3</text><text x="0" y="138.44444444444446" dx="0em" dy="0.3em" style="text-anchor: end; visibility: hidden; font-family: &quot;Helvetica Neue&quot;, sans-serif; font-size: 12px; font-weight: 200;" fill="rgb(50, 49, 63)" stroke="none" stroke-width="1px">-1.2e+3</text><text x="0" y="118.66666666666667" dx="0em" dy="0.3em" style="text-anchor: end; visibility: inherit; font-family: &quot;Helvetica Neue&quot;, sans-serif; font-size: 12px; font-weight: 200;" fill="rgb(50, 49, 63)" stroke="none" stroke-width="1px">-1e+3</text><text x="0" y="98.8888888888889" dx="0em" dy="0.3em" style="text-anchor: end; visibility: hidden; font-family: &quot;Helvetica Neue&quot;, sans-serif; font-size: 12px; font-weight: 200;" fill="rgb(50, 49, 63)" stroke="none" stroke-width="1px">-800</text><text x="0" y="79.1111111111111" dx="0em" dy="0.3em" style="text-anchor: end; visibility: inherit; font-family: &quot;Helvetica Neue&quot;, sans-serif; font-size: 12px; font-weight: 200;" fill="rgb(50, 49, 63)" stroke="none" stroke-width="1px">-600</text><text x="0" y="59.33333333333334" dx="0em" dy="0.3em" style="text-anchor: end; visibility: hidden; font-family: &quot;Helvetica Neue&quot;, sans-serif; font-size: 12px; font-weight: 200;" fill="rgb(50, 49, 63)" stroke="none" stroke-width="1px">-400</text><text x="0" y="39.55555555555554" dx="0em" dy="0.3em" style="text-anchor: end; visibility: inherit; font-family: &quot;Helvetica Neue&quot;, sans-serif; font-size: 12px; font-weight: 200;" fill="rgb(50, 49, 63)" stroke="none" stroke-width="1px">-200</text><text x="0" y="19.7777777777778" dx="0em" dy="0.3em" style="text-anchor: end; visibility: hidden; font-family: &quot;Helvetica Neue&quot;, sans-serif; font-size: 12px; font-weight: 200;" fill="rgb(50, 49, 63)" stroke="none" stroke-width="1px">0</text><text x="0" y="0" dx="0em" dy="0.3em" style="text-anchor: end; visibility: hidden; font-family: &quot;Helvetica Neue&quot;, sans-serif; font-size: 12px; font-weight: 200;" fill="rgb(50, 49, 63)" stroke="none" stroke-width="1px">200</text></g><line x1="80" y1="0" x2="80" y2="178" fill="rgb(0, 0, 0)" stroke="rgb(204, 204, 204)" stroke-width="1px"></line></g></g><g transform="translate(80, 0)" clip-path="url(#clip_0)"><clipPath id="clip_0"><rect width="250" height="178"></rect></clipPath><g><g><g><line x1="0" y1="0" x2="0" y2="178" fill="rgb(0, 0, 0)" stroke="rgb(60, 60, 60)" stroke-width="1px" opacity="0.25"></line><line x1="20.833333333333332" y1="0" x2="20.833333333333332" y2="178" fill="rgb(0, 0, 0)" stroke="rgb(60, 60, 60)" stroke-width="1px" opacity="0.25"></line><line x1="41.666666666666664" y1="0" x2="41.666666666666664" y2="178" fill="rgb(0, 0, 0)" stroke="rgb(60, 60, 60)" stroke-width="1px" opacity="0.25"></line><line x1="62.5" y1="0" x2="62.5" y2="178" fill="rgb(0, 0, 0)" stroke="rgb(60, 60, 60)" stroke-width="1px" opacity="0.25"></line><line x1="83.33333333333333" y1="0" x2="83.33333333333333" y2="178" fill="rgb(0, 0, 0)" stroke="rgb(60, 60, 60)" stroke-width="1px" opacity="0.25"></line><line x1="104.16666666666667" y1="0" x2="104.16666666666667" y2="178" fill="rgb(0, 0, 0)" stroke="rgb(60, 60, 60)" stroke-width="1px" opacity="0.25"></line><line x1="125" y1="0" x2="125" y2="178" fill="rgb(0, 0, 0)" stroke="rgb(60, 60, 60)" stroke-width="1px" opacity="0.25"></line><line x1="145.83333333333334" y1="0" x2="145.83333333333334" y2="178" fill="rgb(0, 0, 0)" stroke="rgb(60, 60, 60)" stroke-width="1px" opacity="0.25"></line><line x1="166.66666666666666" y1="0" x2="166.66666666666666" y2="178" fill="rgb(0, 0, 0)" stroke="rgb(60, 60, 60)" stroke-width="1px" opacity="0.25"></line><line x1="187.5" y1="0" x2="187.5" y2="178" fill="rgb(0, 0, 0)" stroke="rgb(60, 60, 60)" stroke-width="1px" opacity="0.25"></line><line x1="208.33333333333334" y1="0" x2="208.33333333333334" y2="178" fill="rgb(0, 0, 0)" stroke="rgb(60, 60, 60)" stroke-width="1px" opacity="0.25"></line><line x1="229.16666666666666" y1="0" x2="229.16666666666666" y2="178" fill="rgb(0, 0, 0)" stroke="rgb(60, 60, 60)" stroke-width="1px" opacity="0.25"></line><line x1="250" y1="0" x2="250" y2="178" fill="rgb(0, 0, 0)" stroke="rgb(60, 60, 60)" stroke-width="1px" opacity="0.25"></line></g><g><line x1="0" y1="178" x2="250" y2="178" fill="rgb(0, 0, 0)" stroke="rgb(60, 60, 60)" stroke-width="1px" opacity="0.25"></line><line x1="0" y1="158.22222222222223" x2="250" y2="158.22222222222223" fill="rgb(0, 0, 0)" stroke="rgb(60, 60, 60)" stroke-width="1px" opacity="0.25"></line><line x1="0" y1="138.44444444444446" x2="250" y2="138.44444444444446" fill="rgb(0, 0, 0)" stroke="rgb(60, 60, 60)" stroke-width="1px" opacity="0.25"></line><line x1="0" y1="118.66666666666667" x2="250" y2="118.66666666666667" fill="rgb(0, 0, 0)" stroke="rgb(60, 60, 60)" stroke-width="1px" opacity="0.25"></line><line x1="0" y1="98.8888888888889" x2="250" y2="98.8888888888889" fill="rgb(0, 0, 0)" stroke="rgb(60, 60, 60)" stroke-width="1px" opacity="0.25"></line><line x1="0" y1="79.1111111111111" x2="250" y2="79.1111111111111" fill="rgb(0, 0, 0)" stroke="rgb(60, 60, 60)" stroke-width="1px" opacity="0.25"></line><line x1="0" y1="59.33333333333334" x2="250" y2="59.33333333333334" fill="rgb(0, 0, 0)" stroke="rgb(60, 60, 60)" stroke-width="1px" opacity="0.25"></line><line x1="0" y1="39.55555555555554" x2="250" y2="39.55555555555554" fill="rgb(0, 0, 0)" stroke="rgb(60, 60, 60)" stroke-width="1px" opacity="0.25"></line><line x1="0" y1="19.7777777777778" x2="250" y2="19.7777777777778" fill="rgb(0, 0, 0)" stroke="rgb(60, 60, 60)" stroke-width="1px" opacity="0.25"></line><line x1="0" y1="0" x2="250" y2="0" fill="rgb(0, 0, 0)" stroke="rgb(60, 60, 60)" stroke-width="1px" opacity="0.25"></line></g></g></g><g><g><line x1="0" y1="19.7777777777778" x2="250" y2="19.7777777777778" fill="rgb(0, 0, 0)" stroke="rgb(153, 153, 153)" stroke-width="1.5px"></line></g></g><g><g><line x1="20.833333333333332" y1="0" x2="20.833333333333332" y2="178" fill="rgb(0, 0, 0)" stroke="rgb(153, 153, 153)" stroke-width="1.5px"></line></g></g><g><g><g><g><g><path stroke="rgb(255, 112, 67)" stroke-width="2px" d="M22.540000000000003,137.55870564778647L24.246666666666666,137.55689753176011L25.953333333333333,135.565609116656L27.66,133.28064439693225L29.366666666666667,131.08199164367483L31.073333333333334,130.09788530253905L32.779999999999994,129.70234181438292L34.486666666666665,129.27580194306205L36.193333333333335,127.96063359498828L37.900000000000006,126.4927292562157L39.60666666666666,124.95552171790602L41.31333333333333,123.99810367978029L43.02,122.93300544974183L44.72666666666667,121.36526076832558L46.43333333333333,121.19503329758851L48.14,120.02737689055674L49.846666666666664,118.5149023011197L51.553333333333335,116.22449244699459L53.260000000000005,114.06024097925336L54.96666666666666,113.89140120766562L56.67333333333333,113.46314567507375L58.38,112.03989413017202L60.086666666666666,111.00802766028256L61.79333333333333,109.06234253952795L63.5,106.92370130388059L65.20666666666666,105.8043258263888L66.91333333333334,105.44063359189524L68.62,104.75931519773678L70.32666666666667,103.8720816588549L72.03333333333333,102.38884106421355L73.74,99.74647485692208L75.44666666666666,97.83199509318085L77.15333333333334,98.30068942945518L78.86,100.47461392423831L80.56666666666666,100.31979402020517L82.27333333333334,100.13627081708103L83.98,99.42353197863066L85.68666666666667,99.19119437718125L87.39333333333333,97.12021979862311L89.1,93.68114295949391L90.80666666666666,91.05317491088407L92.51333333333334,87.98588530141461L94.22,83.70440871570428L95.92666666666666,78.10184495397684L97.63333333333334,72.16860930959679L99.34,62.584853150648044L101.04666666666667,54.06285219927403L102.75333333333333,47.8324059860696L104.46,44.05741577176403L106.16666666666667,41.74086609940724L107.87333333333333,39.96139419368123L109.58,38.796247202624784L111.28666666666668,38.117922773483684L112.99333333333334,37.54172949339167L114.7,37.11572001995279L116.40666666666667,37.241218787801074L118.11333333333333,37.490773929285126L119.82,37.25707436535245L121.52666666666667,37.297735524504645L123.23333333333333,37.17222678506698L124.94,36.2465233311834L126.64666666666666,36.90333270697147L128.35333333333335,37.02058718416038L130.06,36.86856956851554L131.76666666666668,36.31830441253027L133.47333333333333,36.26614161916507L135.18,36.07215937806285L136.88666666666666,36.24116736743693L138.59333333333333,36.00645048888697L140.3,35.62000321140869L142.00666666666666,35.49748542538177L143.71333333333334,36.12998729771405L145.42,36.53090993625361L147.12666666666667,36.077984730884964L148.83333333333334,35.346612985495796L150.54000000000002,35.67769339483203L152.24666666666667,36.16203003219016L153.95333333333332,36.63883423382805L155.66,36.60507373128411L157.36666666666665,36.286292637658875L159.07333333333335,36.26531913460866L160.78,36.77553614914811L162.48666666666668,36.526047647868694L164.19333333333333,37.69038488995318L165.9,38.19220994412174L167.60666666666665,38.76312838872843L169.31333333333333,38.44048922176083L171.02,38.366531893732486L172.72666666666666,38.93893648599632L174.43333333333334,38.640697706202786L176.14,38.16405211000236L177.84666666666666,38.1829178360633L179.55333333333334,38.00223736288339L181.26,37.9489313796567L182.96666666666667,38.349692142105L184.67333333333332,38.833722217420274L186.38,38.11526349085909L188.08666666666667,38.324850334732446L189.79333333333335,38.20529730201059L191.5,37.16092834190644L193.20666666666668,36.11764314930173L194.91333333333333,36.66677955001859L196.61999999999998,36.30172676805978L198.32666666666668,36.09618940086287L200.03333333333333,35.67844471347854L201.74,35.77421821863044L203.44666666666666,35.24419496929977L205.15333333333334,34.70306893874604L206.85999999999999,34.50582532057743L208.5666666666667,34.10465260891925L210.27333333333334,34.553925617834494L211.98,34.35177458274495L213.68666666666667,34.060037129362456L215.39333333333332,34.72384694091343L217.1,34.49538933705756L218.80666666666667,34.388916939874036L220.51333333333335,34.99675157330955L222.22,34.82439356573272L223.92666666666668,34.82149132874173L225.63333333333333,35.2100690995336L227.33999999999997,35.15806903837128L229.04666666666668,34.730790488493426L230.75333333333333,34.12841903597439" style="fill: none;" fill="none"></path></g></g></g></g><g opacity="0.2"><g><g><g><path stroke="rgb(255, 112, 67)" stroke-width="2px" d="M22.540000000000003,137.55870564778647L24.246666666666666,137.5557602267795L25.953333333333333,133.52525336371528L27.66,130.37074367947048L29.366666666666667,127.93785007052952L31.073333333333334,128.59368910047743L32.779999999999994,129.0732615831163L34.486666666666665,128.58080891927082L36.193333333333335,125.7855078125L37.900000000000006,124.04237386067709L39.60666666666666,122.37457750108507L41.31333333333333,122.38477783203125L43.02,121.1341448296441L44.72666666666667,118.71369079589843L46.43333333333333,120.90686455620659L48.14,118.04960096571182L49.846666666666664,115.95216545952691L51.553333333333335,112.34275722927518L53.260000000000005,110.3918020968967L54.96666666666666,113.60519002278646L56.67333333333333,112.73714185926649L58.38,109.62703077528212L60.086666666666666,109.25864793565538L61.79333333333333,105.76367051866319L63.5,103.29786424424913L65.20666666666666,103.90653428819445L66.91333333333334,104.82402689615886L68.62,103.60420010036893L70.32666666666667,102.36785359700521L72.03333333333333,99.87413221571181L73.74,95.26656426323785L75.44666666666666,94.58615390353734L77.15333333333334,99.09532185872396L78.86,104.16032335069444L80.56666666666666,100.05730963812934L82.27333333333334,99.82512234157987L83.98,98.2151419406467L85.68666666666667,98.79728508843316L87.39333333333333,93.609052734375L89.1,87.85047098795575L90.80666666666666,86.59767116970487L92.51333333333334,82.78554796006944L94.22,76.44551717122397L95.92666666666666,68.60315870496962L97.63333333333334,62.10929606119791L99.34,46.33638248019747L101.04666666666667,39.61450018988714L102.75333333333333,37.26919664171007L104.46,37.657230207655175L106.16666666666667,37.8133465745714L107.87333333333333,36.94444586859808L109.58,36.820836266411675L111.28666666666668,36.96787946912977L112.99333333333334,36.564841156005855L114.7,36.39345598008899L116.40666666666667,37.45399163140192L118.11333333333333,37.91387415568033L119.82,36.860855967203776L121.52666666666667,37.36667317708333L123.23333333333333,36.95943703545464L124.94,34.677069227430565L126.64666666666666,38.01689900716147L128.35333333333335,37.219382510715064L130.06,36.610836198594825L131.76666666666668,35.38537507798938L133.47333333333333,36.17770389133028L135.18,35.74327843560113L136.88666666666666,36.52770651923285L138.59333333333333,35.608507317437045L140.3,34.96481362236872L142.00666666666666,35.28976659138996L143.71333333333334,37.20234222412111L145.42,37.21064130995009L147.12666666666667,35.31008728027342L148.83333333333334,34.10663231743706L150.54000000000002,36.23901301066081L152.24666666666667,36.98318298339842L153.95333333333332,37.44721655951605L155.66,36.54783557467991L157.36666666666665,35.74582550048828L159.07333333333335,36.22976028442383L160.78,37.640567152235235L162.48666666666668,36.103060404459626L164.19333333333333,39.66442296346028L165.9,39.04301306830513L167.60666666666665,39.73107367621526L169.31333333333333,37.893481038411466L171.02,38.241143324110226L172.72666666666666,39.9094014146593L174.43333333333334,38.13505837334529L176.14,37.3559386867947L177.84666666666666,38.214903123643666L179.55333333333334,37.695908474392354L181.26,37.85855546739367L182.96666666666667,39.0291490681966L184.67333333333332,39.65435541788736L186.38,36.89717578464084L188.08666666666667,38.68018759833441L189.79333333333335,38.00260496351453L191.5,35.39028662787544L193.20666666666668,34.348838873969186L194.91333333333333,37.597795172797305L196.61999999999998,35.68280978732639L198.32666666666668,35.74771769205731L200.03333333333333,34.97019293891057L201.74,35.936594323052304L203.44666666666666,34.34558412339953L205.15333333333334,33.78563424004449L206.85999999999999,34.171414981418195L208.5666666666667,33.42449725680882L210.27333333333334,35.31563106960721L211.98,34.00904412163629L213.68666666666667,33.5654202609592L215.39333333333332,35.8492819044325L217.1,34.10805825127497L218.80666666666667,34.20840174357096L220.51333333333335,36.027285224066844L222.22,34.53217473347982L223.92666666666668,34.81657082451716L225.63333333333333,35.868870764838306L227.33999999999997,35.06990720960829L229.04666666666668,34.00637483384875L230.75333333333333,33.10714775933161" style="fill: none;" fill="none"></path></g></g></g></g></g></g><g transform="translate(80, 178)" clip-path="url(#clip_1)"><clipPath id="clip_1"><rect width="250" height="22"></rect></clipPath><g><g><line x1="0" y1="0" x2="0" y2="5" style="visibility: inherit;" fill="rgb(0, 0, 0)" stroke="rgb(204, 204, 204)" stroke-width="1px"></line><line x1="20.833333333333332" y1="0" x2="20.833333333333332" y2="5" style="visibility: inherit;" fill="rgb(0, 0, 0)" stroke="rgb(204, 204, 204)" stroke-width="1px"></line><line x1="41.666666666666664" y1="0" x2="41.666666666666664" y2="5" style="visibility: inherit;" fill="rgb(0, 0, 0)" stroke="rgb(204, 204, 204)" stroke-width="1px"></line><line x1="62.5" y1="0" x2="62.5" y2="5" style="visibility: inherit;" fill="rgb(0, 0, 0)" stroke="rgb(204, 204, 204)" stroke-width="1px"></line><line x1="83.33333333333333" y1="0" x2="83.33333333333333" y2="5" style="visibility: inherit;" fill="rgb(0, 0, 0)" stroke="rgb(204, 204, 204)" stroke-width="1px"></line><line x1="104.16666666666667" y1="0" x2="104.16666666666667" y2="5" style="visibility: inherit;" fill="rgb(0, 0, 0)" stroke="rgb(204, 204, 204)" stroke-width="1px"></line><line x1="125" y1="0" x2="125" y2="5" style="visibility: inherit;" fill="rgb(0, 0, 0)" stroke="rgb(204, 204, 204)" stroke-width="1px"></line><line x1="145.83333333333334" y1="0" x2="145.83333333333334" y2="5" style="visibility: inherit;" fill="rgb(0, 0, 0)" stroke="rgb(204, 204, 204)" stroke-width="1px"></line><line x1="166.66666666666666" y1="0" x2="166.66666666666666" y2="5" style="visibility: inherit;" fill="rgb(0, 0, 0)" stroke="rgb(204, 204, 204)" stroke-width="1px"></line><line x1="187.5" y1="0" x2="187.5" y2="5" style="visibility: inherit;" fill="rgb(0, 0, 0)" stroke="rgb(204, 204, 204)" stroke-width="1px"></line><line x1="208.33333333333334" y1="0" x2="208.33333333333334" y2="5" style="visibility: inherit;" fill="rgb(0, 0, 0)" stroke="rgb(204, 204, 204)" stroke-width="1px"></line><line x1="229.16666666666666" y1="0" x2="229.16666666666666" y2="5" style="visibility: inherit;" fill="rgb(0, 0, 0)" stroke="rgb(204, 204, 204)" stroke-width="1px"></line><line x1="250" y1="0" x2="250" y2="5" style="visibility: inherit;" fill="rgb(0, 0, 0)" stroke="rgb(204, 204, 204)" stroke-width="1px"></line></g><g transform="translate(0, 8)"><text x="0" y="0" dx="0em" dy="0.95em" style="text-anchor: middle; visibility: hidden; font-family: &quot;Helvetica Neue&quot;, sans-serif; font-size: 12px; font-weight: 200;" fill="rgb(50, 49, 63)" stroke="none" stroke-width="1px">-200k</text><text x="20.833333333333332" y="0" dx="0em" dy="0.95em" style="text-anchor: middle; visibility: inherit; font-family: &quot;Helvetica Neue&quot;, sans-serif; font-size: 12px; font-weight: 200;" fill="rgb(50, 49, 63)" stroke="none" stroke-width="1px">0</text><text x="41.666666666666664" y="0" dx="0em" dy="0.95em" style="text-anchor: middle; visibility: hidden; font-family: &quot;Helvetica Neue&quot;, sans-serif; font-size: 12px; font-weight: 200;" fill="rgb(50, 49, 63)" stroke="none" stroke-width="1px">200k</text><text x="62.5" y="0" dx="0em" dy="0.95em" style="text-anchor: middle; visibility: inherit; font-family: &quot;Helvetica Neue&quot;, sans-serif; font-size: 12px; font-weight: 200;" fill="rgb(50, 49, 63)" stroke="none" stroke-width="1px">400k</text><text x="83.33333333333333" y="0" dx="0em" dy="0.95em" style="text-anchor: middle; visibility: hidden; font-family: &quot;Helvetica Neue&quot;, sans-serif; font-size: 12px; font-weight: 200;" fill="rgb(50, 49, 63)" stroke="none" stroke-width="1px">600k</text><text x="104.16666666666667" y="0" dx="0em" dy="0.95em" style="text-anchor: middle; visibility: inherit; font-family: &quot;Helvetica Neue&quot;, sans-serif; font-size: 12px; font-weight: 200;" fill="rgb(50, 49, 63)" stroke="none" stroke-width="1px">800k</text><text x="125" y="0" dx="0em" dy="0.95em" style="text-anchor: middle; visibility: hidden; font-family: &quot;Helvetica Neue&quot;, sans-serif; font-size: 12px; font-weight: 200;" fill="rgb(50, 49, 63)" stroke="none" stroke-width="1px">1M</text><text x="145.83333333333334" y="0" dx="0em" dy="0.95em" style="text-anchor: middle; visibility: inherit; font-family: &quot;Helvetica Neue&quot;, sans-serif; font-size: 12px; font-weight: 200;" fill="rgb(50, 49, 63)" stroke="none" stroke-width="1px">1.2M</text><text x="166.66666666666666" y="0" dx="0em" dy="0.95em" style="text-anchor: middle; visibility: hidden; font-family: &quot;Helvetica Neue&quot;, sans-serif; font-size: 12px; font-weight: 200;" fill="rgb(50, 49, 63)" stroke="none" stroke-width="1px">1.4M</text><text x="187.5" y="0" dx="0em" dy="0.95em" style="text-anchor: middle; visibility: inherit; font-family: &quot;Helvetica Neue&quot;, sans-serif; font-size: 12px; font-weight: 200;" fill="rgb(50, 49, 63)" stroke="none" stroke-width="1px">1.6M</text><text x="208.33333333333334" y="0" dx="0em" dy="0.95em" style="text-anchor: middle; visibility: hidden; font-family: &quot;Helvetica Neue&quot;, sans-serif; font-size: 12px; font-weight: 200;" fill="rgb(50, 49, 63)" stroke="none" stroke-width="1px">1.8M</text><text x="229.16666666666666" y="0" dx="0em" dy="0.95em" style="text-anchor: middle; visibility: inherit; font-family: &quot;Helvetica Neue&quot;, sans-serif; font-size: 12px; font-weight: 200;" fill="rgb(50, 49, 63)" stroke="none" stroke-width="1px">2M</text><text x="250" y="0" dx="0em" dy="0.95em" style="text-anchor: middle; visibility: hidden; font-family: &quot;Helvetica Neue&quot;, sans-serif; font-size: 12px; font-weight: 200;" fill="rgb(50, 49, 63)" stroke="none" stroke-width="1px">2.2M</text></g><line x1="0" y1="0" x2="250" y2="0" fill="rgb(0, 0, 0)" stroke="rgb(204, 204, 204)" stroke-width="1px"></line></g></g></g></g></svg>