<svg viewBox="0 0 2138 400" xmlns="http://www.w3.org/2000/svg"><g><g><g><g><g><line x1="80" y1="378" x2="75" y2="378" style="visibility: inherit;" fill="rgb(0, 0, 0)" stroke="rgb(204, 204, 204)" stroke-width="1px"></line><line x1="80" y1="336" x2="75" y2="336" style="visibility: inherit;" fill="rgb(0, 0, 0)" stroke="rgb(204, 204, 204)" stroke-width="1px"></line><line x1="80" y1="294" x2="75" y2="294" style="visibility: inherit;" fill="rgb(0, 0, 0)" stroke="rgb(204, 204, 204)" stroke-width="1px"></line><line x1="80" y1="252" x2="75" y2="252" style="visibility: inherit;" fill="rgb(0, 0, 0)" stroke="rgb(204, 204, 204)" stroke-width="1px"></line><line x1="80" y1="210" x2="75" y2="210" style="visibility: inherit;" fill="rgb(0, 0, 0)" stroke="rgb(204, 204, 204)" stroke-width="1px"></line><line x1="80" y1="168" x2="75" y2="168" style="visibility: inherit;" fill="rgb(0, 0, 0)" stroke="rgb(204, 204, 204)" stroke-width="1px"></line><line x1="80" y1="126" x2="75" y2="126" style="visibility: inherit;" fill="rgb(0, 0, 0)" stroke="rgb(204, 204, 204)" stroke-width="1px"></line><line x1="80" y1="84" x2="75" y2="84" style="visibility: inherit;" fill="rgb(0, 0, 0)" stroke="rgb(204, 204, 204)" stroke-width="1px"></line><line x1="80" y1="42" x2="75" y2="42" style="visibility: inherit;" fill="rgb(0, 0, 0)" stroke="rgb(204, 204, 204)" stroke-width="1px"></line><line x1="80" y1="0" x2="75" y2="0" style="visibility: inherit;" fill="rgb(0, 0, 0)" stroke="rgb(204, 204, 204)" stroke-width="1px"></line></g><g transform="translate(70, 0)"><text x="0" y="378" dx="0em" dy="0.3em" style="text-anchor: end; visibility: hidden; font-family: &quot;Helvetica Neue&quot;, sans-serif; font-size: 12px; font-weight: 200;" fill="rgb(50, 49, 63)" stroke="none" stroke-width="1px">-1.6e+3</text><text x="0" y="336" dx="0em" dy="0.3em" style="text-anchor: end; visibility: inherit; font-family: &quot;Helvetica Neue&quot;, sans-serif; font-size: 12px; font-weight: 200;" fill="rgb(50, 49, 63)" stroke="none" stroke-width="1px">-1.4e+3</text><text x="0" y="294" dx="0em" dy="0.3em" style="text-anchor: end; visibility: inherit; font-family: &quot;Helvetica Neue&quot;, sans-serif; font-size: 12px; font-weight: 200;" fill="rgb(50, 49, 63)" stroke="none" stroke-width="1px">-1.2e+3</text><text x="0" y="252" dx="0em" dy="0.3em" style="text-anchor: end; visibility: inherit; font-family: &quot;Helvetica Neue&quot;, sans-serif; font-size: 12px; font-weight: 200;" fill="rgb(50, 49, 63)" stroke="none" stroke-width="1px">-1e+3</text><text x="0" y="210" dx="0em" dy="0.3em" style="text-anchor: end; visibility: inherit; font-family: &quot;Helvetica Neue&quot;, sans-serif; font-size: 12px; font-weight: 200;" fill="rgb(50, 49, 63)" stroke="none" stroke-width="1px">-800</text><text x="0" y="168" dx="0em" dy="0.3em" style="text-anchor: end; visibility: inherit; font-family: &quot;Helvetica Neue&quot;, sans-serif; font-size: 12px; font-weight: 200;" fill="rgb(50, 49, 63)" stroke="none" stroke-width="1px">-600</text><text x="0" y="126" dx="0em" dy="0.3em" style="text-anchor: end; visibility: inherit; font-family: &quot;Helvetica Neue&quot;, sans-serif; font-size: 12px; font-weight: 200;" fill="rgb(50, 49, 63)" stroke="none" stroke-width="1px">-400</text><text x="0" y="84" dx="0em" dy="0.3em" style="text-anchor: end; visibility: inherit; font-family: &quot;Helvetica Neue&quot;, sans-serif; font-size: 12px; font-weight: 200;" fill="rgb(50, 49, 63)" stroke="none" stroke-width="1px">-200</text><text x="0" y="42" dx="0em" dy="0.3em" style="text-anchor: end; visibility: inherit; font-family: &quot;Helvetica Neue&quot;, sans-serif; font-size: 12px; font-weight: 200;" fill="rgb(50, 49, 63)" stroke="none" stroke-width="1px">0</text><text x="0" y="0" dx="0em" dy="0.3em" style="text-anchor: end; visibility: hidden; font-family: &quot;Helvetica Neue&quot;, sans-serif; font-size: 12px; font-weight: 200;" fill="rgb(50, 49, 63)" stroke="none" stroke-width="1px">200</text></g><line x1="80" y1="0" x2="80" y2="378" fill="rgb(0, 0, 0)" stroke="rgb(204, 204, 204)" stroke-width="1px"></line></g></g><g transform="translate(80, 0)" clip-path="url(#clip_0)"><clipPath id="clip_0"><rect width="2058" height="378"></rect></clipPath><g><g><g><line x1="0" y1="0" x2="0" y2="378" fill="rgb(0, 0, 0)" stroke="rgb(60, 60, 60)" stroke-width="1px" opacity="0.25"></line><line x1="171.5" y1="0" x2="171.5" y2="378" fill="rgb(0, 0, 0)" stroke="rgb(60, 60, 60)" stroke-width="1px" opacity="0.25"></line><line x1="343" y1="0" x2="343" y2="378" fill="rgb(0, 0, 0)" stroke="rgb(60, 60, 60)" stroke-width="1px" opacity="0.25"></line><line x1="514.5" y1="0" x2="514.5" y2="378" fill="rgb(0, 0, 0)" stroke="rgb(60, 60, 60)" stroke-width="1px" opacity="0.25"></line><line x1="686" y1="0" x2="686" y2="378" fill="rgb(0, 0, 0)" stroke="rgb(60, 60, 60)" stroke-width="1px" opacity="0.25"></line><line x1="857.5" y1="0" x2="857.5" y2="378" fill="rgb(0, 0, 0)" stroke="rgb(60, 60, 60)" stroke-width="1px" opacity="0.25"></line><line x1="1029" y1="0" x2="1029" y2="378" fill="rgb(0, 0, 0)" stroke="rgb(60, 60, 60)" stroke-width="1px" opacity="0.25"></line><line x1="1200.5" y1="0" x2="1200.5" y2="378" fill="rgb(0, 0, 0)" stroke="rgb(60, 60, 60)" stroke-width="1px" opacity="0.25"></line><line x1="1372" y1="0" x2="1372" y2="378" fill="rgb(0, 0, 0)" stroke="rgb(60, 60, 60)" stroke-width="1px" opacity="0.25"></line><line x1="1543.5" y1="0" x2="1543.5" y2="378" fill="rgb(0, 0, 0)" stroke="rgb(60, 60, 60)" stroke-width="1px" opacity="0.25"></line><line x1="1715" y1="0" x2="1715" y2="378" fill="rgb(0, 0, 0)" stroke="rgb(60, 60, 60)" stroke-width="1px" opacity="0.25"></line><line x1="1886.5" y1="0" x2="1886.5" y2="378" fill="rgb(0, 0, 0)" stroke="rgb(60, 60, 60)" stroke-width="1px" opacity="0.25"></line><line x1="2058" y1="0" x2="2058" y2="378" fill="rgb(0, 0, 0)" stroke="rgb(60, 60, 60)" stroke-width="1px" opacity="0.25"></line></g><g><line x1="0" y1="378" x2="2058" y2="378" fill="rgb(0, 0, 0)" stroke="rgb(60, 60, 60)" stroke-width="1px" opacity="0.25"></line><line x1="0" y1="336" x2="2058" y2="336" fill="rgb(0, 0, 0)" stroke="rgb(60, 60, 60)" stroke-width="1px" opacity="0.25"></line><line x1="0" y1="294" x2="2058" y2="294" fill="rgb(0, 0, 0)" stroke="rgb(60, 60, 60)" stroke-width="1px" opacity="0.25"></line><line x1="0" y1="252" x2="2058" y2="252" fill="rgb(0, 0, 0)" stroke="rgb(60, 60, 60)" stroke-width="1px" opacity="0.25"></line><line x1="0" y1="210" x2="2058" y2="210" fill="rgb(0, 0, 0)" stroke="rgb(60, 60, 60)" stroke-width="1px" opacity="0.25"></line><line x1="0" y1="168" x2="2058" y2="168" fill="rgb(0, 0, 0)" stroke="rgb(60, 60, 60)" stroke-width="1px" opacity="0.25"></line><line x1="0" y1="126" x2="2058" y2="126" fill="rgb(0, 0, 0)" stroke="rgb(60, 60, 60)" stroke-width="1px" opacity="0.25"></line><line x1="0" y1="84" x2="2058" y2="84" fill="rgb(0, 0, 0)" stroke="rgb(60, 60, 60)" stroke-width="1px" opacity="0.25"></line><line x1="0" y1="42" x2="2058" y2="42" fill="rgb(0, 0, 0)" stroke="rgb(60, 60, 60)" stroke-width="1px" opacity="0.25"></line><line x1="0" y1="0" x2="2058" y2="0" fill="rgb(0, 0, 0)" stroke="rgb(60, 60, 60)" stroke-width="1px" opacity="0.25"></line></g></g></g><g><g><line x1="0" y1="42" x2="2058" y2="42" fill="rgb(0, 0, 0)" stroke="rgb(153, 153, 153)" stroke-width="1.5px"></line></g></g><g><g><line x1="171.5" y1="0" x2="171.5" y2="378" fill="rgb(0, 0, 0)" stroke="rgb(153, 153, 153)" stroke-width="1.5px"></line></g></g><g><g><g><g><g><path stroke="rgb(255, 112, 67)" stroke-width="2px" d="M185.54928,292.1190490722656L199.59856,292.11520936519844L213.64783999999997,287.88651823649417L227.69712,283.0341774271932L241.7464,278.36512832196115L255.79568,276.2752845188751L269.84495999999996,275.43531014515025L283.89423999999997,274.5295119914464L297.94352000000003,271.7366263983459L311.99280000000005,268.6193913418513L326.04208,265.3549843222948L340.09136,263.3218156795334L354.14064,261.0599778651821L368.18992,257.7307223057701L382.2392,257.3692280139801L396.28848,254.88959811590138L410.33776,251.6777138754115L424.38704,246.81380980316825L438.43632,242.2178151132459L452.4856,241.85926773313264L466.53488,240.9498262088645L480.58416,237.9274156247473L494.63343999999995,235.7361486268922L508.68272,231.60430044910993L522.732,227.0626915329599L536.7812799999999,224.68559079985937L550.83056,223.91325560526064L564.8798400000001,222.46641092553094L578.92912,220.5822857699278L592.9784000000001,217.43248270939733L607.02768,211.82116570739632L621.07696,207.75558508551887L635.12624,208.75090227153964L649.17552,213.36743855821393L663.2248,213.03866370582895L677.27408,212.64893465649791L691.32336,211.13536566248533L705.3726399999999,210.64197457626128L719.42192,206.24406226898614L733.4712,198.9408541499365L747.5204799999999,193.36011301300098L761.56976,186.84643058390296L775.61904,177.75430614907987L789.66832,165.85672692473733L803.7176000000001,153.25693437655949L817.76688,132.90491287047732L831.8161600000001,114.8076299512673L845.86544,101.57668237491185L859.91472,93.56013012206068L873.964,88.64071564930305L888.01328,84.86183710792983L902.06256,82.387536194338L916.11184,80.94704948526311L930.16112,79.72344802529244L944.2103999999999,78.81877622214694L958.25968,79.08528484151014L972.30896,79.61523901836955L986.35824,79.11895567473721L1000.4075200000001,79.2053035295661L1014.4568,78.93877373458048L1028.5060799999999,76.97295404037823L1042.5553599999998,78.36775147884953L1056.60464,78.61675255962149L1070.65392,78.29392863426335L1084.7032,77.12538802211486L1098.75248,77.014615348564L1112.80176,76.60267553318965L1126.85104,76.96158013983796L1140.9003200000002,76.46313643145663L1154.9496000000001,75.64247872984538L1168.99888,75.38230051008037L1183.04816,76.72547864346018L1197.09744,77.57687615676326L1211.14672,76.61504622626131L1225.1960000000001,75.06190847481696L1239.24528,75.76498934408147L1253.29456,76.79352445038137L1267.34384,77.80606371003933L1281.39312,77.7343700585696L1295.4424,77.05740796087105L1309.49168,77.0128687240566L1323.54096,78.09636328302241L1337.59024,77.56655062300206L1351.63952,80.03913195731627L1365.6888,81.10480538695515L1379.7380799999999,82.31720522999632L1393.78736,81.63205014508765L1407.83664,81.47499469567907L1421.88592,82.6905505152057L1435.9352,82.0572119828351L1449.9844799999998,81.04500953697135L1464.0337599999998,81.08507270804455L1478.08304,80.70138046724674L1492.13232,80.58818012084402L1506.1816,81.43923387480726L1520.23088,82.4671179673307L1534.28016,80.94140224463337L1548.3294400000002,81.38647992431947L1562.3787200000002,81.13259764134835L1576.428,78.91478041146422L1590.47728,76.69926466537112L1604.52656,77.86540825790462L1618.57584,77.09018381082359L1632.6251200000002,76.65370558160765L1646.6744,75.76658484098255L1660.72368,75.96996902608038L1674.77296,74.84441403592876L1688.82224,73.69528122947196L1702.87152,73.27641556841724L1716.9208,72.42448700096338L1730.97008,73.37856114349125L1745.01936,72.94927411391905L1759.06864,72.32974176909556L1773.11792,73.73940530149031L1787.1671999999999,73.25425376071769L1801.21648,73.02814945658645L1815.26576,74.31894435230907L1829.31504,73.9529256620616L1843.36432,73.94676248463134L1857.4135999999999,74.77194449226795L1871.4628799999998,74.66151739609182L1885.51216,73.75415058792424L1899.56144,72.47495727864225" style="fill: none;" fill="none"></path></g></g></g></g><g opacity="0.2"><g><g><g><path stroke="rgb(255, 112, 67)" stroke-width="2px" d="M185.54928,292.1190490722656L199.59856,292.1127941894531L213.64783999999997,283.5536279296875L227.69712,276.8547253417969L241.7464,271.6882434082031L255.79568,273.0809802246094L269.84495999999996,274.0993981933594L283.89423999999997,273.0536279296875L297.94352000000003,267.1175390625L311.99280000000005,263.41582763671875L326.04208,259.8741027832031L340.09136,259.89576416015626L354.14064,257.23992553710934L368.18992,252.09986022949218L382.2392,256.75727416992186L396.28848,250.68960205078128L410.33776,246.23549743652345L424.38704,238.57057434082031L438.43632,234.42753479003906L452.4856,241.25147094726563L466.53488,239.40808776855468L480.58416,232.80346984863283L494.63343999999995,232.02117370605467L508.68272,224.59925537109373L522.732,219.36288024902342L536.7812799999999,220.65544921875L550.83056,222.60383239746093L564.8798400000001,220.01341369628906L578.92912,217.38791381835938L592.9784000000001,212.09225830078125L607.02768,202.30764770507812L621.07696,200.8627313232422L635.12624,210.43838012695312L649.17552,221.19439453125L663.2248,212.48125305175782L677.27408,211.98818115234377L691.32336,208.56923400878907L705.3726399999999,209.8054705810547L719.42192,198.78776367187498L733.4712,186.55886535644532L747.5204799999999,183.89842529296874L761.56976,175.80301757812498L775.61904,162.33935668945315L789.66832,145.6853594970703L803.7176000000001,131.89502197265625L817.76688,98.39973358154293L831.8161600000001,84.1251745605469L845.86544,79.14469848632814L859.91472,79.96872482299807L873.964,80.30025283813478L888.01328,78.45505920410159L902.06256,78.19256240844726L916.11184,78.50482269287113L930.16112,77.64893234252929L944.2103999999999,77.28497955322268L958.25968,79.53712829589841L972.30896,80.51373275756833L986.35824,78.27754806518556L1000.4075200000001,79.35169921875001L1014.4568,78.4868943786621L1028.5060799999999,73.640068359375L1042.5553599999998,80.73251586914063L1056.60464,79.03891342163087L1070.65392,77.74660720825193L1084.7032,75.14422348022464L1098.75248,76.82680938720699L1112.80176,75.90426544189455L1126.85104,77.57007339477536L1140.9003200000002,75.61806610107419L1154.9496000000001,74.25112106323246L1168.99888,74.94118972778318L1183.04816,79.00272674560546L1197.09744,79.02035064697264L1211.14672,74.98434265136717L1225.1960000000001,72.42869110107421L1239.24528,76.95700515747069L1253.29456,78.53732116699217L1267.34384,79.5227407836914L1281.39312,77.61281936645508L1295.4424,75.90967437744138L1309.49168,76.93735610961915L1323.54096,79.93333923339844L1337.59024,76.66829681396484L1351.63952,84.23119033813481L1365.6888,82.91156707763673L1379.7380799999999,84.37272949218749L1393.78736,80.47042602539062L1407.83664,81.20872009277343L1421.88592,84.75142547607425L1435.9352,80.98343856811528L1449.9844799999998,79.32890350341796L1464.0337599999998,81.15299652099611L1478.08304,80.05086181640627L1492.13232,80.39625823974609L1506.1816,82.88212554931641L1520.23088,84.20981094360349L1534.28016,78.35467666625976L1548.3294400000002,82.14107254028318L1562.3787200000002,80.7021611022949L1576.428,75.15465362548832L1590.47728,72.94303985595701L1604.52656,79.84250885009766L1618.57584,75.77585449218748L1632.6251200000002,75.91369262695315L1646.6744,74.26254455566402L1660.72368,76.31479019165039L1674.77296,72.93612808227539L1688.82224,71.74702102661132L1702.87152,72.56626327514647L1716.9208,70.9801121520996L1730.97008,74.99611541748044L1745.01936,72.22145324707031L1759.06864,71.27937561035156L1773.11792,76.1293739318848L1787.1671999999999,72.43171920776365L1801.21648,72.64480819702146L1815.26576,76.5073809814453L1829.31504,73.33237106323242L1843.36432,73.93631332397462L1857.4135999999999,76.1709727478027L1871.4628799999998,74.47429733276368L1885.51216,72.21578475952151L1899.56144,70.30619018554688" style="fill: none;" fill="none"></path></g></g></g></g></g></g><g transform="translate(80, 378)" clip-path="url(#clip_1)"><clipPath id="clip_1"><rect width="2058" height="22"></rect></clipPath><g><g><line x1="0" y1="0" x2="0" y2="5" style="visibility: inherit;" fill="rgb(0, 0, 0)" stroke="rgb(204, 204, 204)" stroke-width="1px"></line><line x1="171.5" y1="0" x2="171.5" y2="5" style="visibility: inherit;" fill="rgb(0, 0, 0)" stroke="rgb(204, 204, 204)" stroke-width="1px"></line><line x1="343" y1="0" x2="343" y2="5" style="visibility: inherit;" fill="rgb(0, 0, 0)" stroke="rgb(204, 204, 204)" stroke-width="1px"></line><line x1="514.5" y1="0" x2="514.5" y2="5" style="visibility: inherit;" fill="rgb(0, 0, 0)" stroke="rgb(204, 204, 204)" stroke-width="1px"></line><line x1="686" y1="0" x2="686" y2="5" style="visibility: inherit;" fill="rgb(0, 0, 0)" stroke="rgb(204, 204, 204)" stroke-width="1px"></line><line x1="857.5" y1="0" x2="857.5" y2="5" style="visibility: inherit;" fill="rgb(0, 0, 0)" stroke="rgb(204, 204, 204)" stroke-width="1px"></line><line x1="1029" y1="0" x2="1029" y2="5" style="visibility: inherit;" fill="rgb(0, 0, 0)" stroke="rgb(204, 204, 204)" stroke-width="1px"></line><line x1="1200.5" y1="0" x2="1200.5" y2="5" style="visibility: inherit;" fill="rgb(0, 0, 0)" stroke="rgb(204, 204, 204)" stroke-width="1px"></line><line x1="1372" y1="0" x2="1372" y2="5" style="visibility: inherit;" fill="rgb(0, 0, 0)" stroke="rgb(204, 204, 204)" stroke-width="1px"></line><line x1="1543.5" y1="0" x2="1543.5" y2="5" style="visibility: inherit;" fill="rgb(0, 0, 0)" stroke="rgb(204, 204, 204)" stroke-width="1px"></line><line x1="1715" y1="0" x2="1715" y2="5" style="visibility: inherit;" fill="rgb(0, 0, 0)" stroke="rgb(204, 204, 204)" stroke-width="1px"></line><line x1="1886.5" y1="0" x2="1886.5" y2="5" style="visibility: inherit;" fill="rgb(0, 0, 0)" stroke="rgb(204, 204, 204)" stroke-width="1px"></line><line x1="2058" y1="0" x2="2058" y2="5" style="visibility: inherit;" fill="rgb(0, 0, 0)" stroke="rgb(204, 204, 204)" stroke-width="1px"></line></g><g transform="translate(0, 8)"><text x="0" y="0" dx="0em" dy="0.95em" style="text-anchor: middle; visibility: hidden; font-family: &quot;Helvetica Neue&quot;, sans-serif; font-size: 12px; font-weight: 200;" fill="rgb(50, 49, 63)" stroke="none" stroke-width="1px">-200k</text><text x="171.5" y="0" dx="0em" dy="0.95em" style="text-anchor: middle; visibility: inherit; font-family: &quot;Helvetica Neue&quot;, sans-serif; font-size: 12px; font-weight: 200;" fill="rgb(50, 49, 63)" stroke="none" stroke-width="1px">0</text><text x="343" y="0" dx="0em" dy="0.95em" style="text-anchor: middle; visibility: inherit; font-family: &quot;Helvetica Neue&quot;, sans-serif; font-size: 12px; font-weight: 200;" fill="rgb(50, 49, 63)" stroke="none" stroke-width="1px">200k</text><text x="514.5" y="0" dx="0em" dy="0.95em" style="text-anchor: middle; visibility: inherit; font-family: &quot;Helvetica Neue&quot;, sans-serif; font-size: 12px; font-weight: 200;" fill="rgb(50, 49, 63)" stroke="none" stroke-width="1px">400k</text><text x="686" y="0" dx="0em" dy="0.95em" style="text-anchor: middle; visibility: inherit; font-family: &quot;Helvetica Neue&quot;, sans-serif; font-size: 12px; font-weight: 200;" fill="rgb(50, 49, 63)" stroke="none" stroke-width="1px">600k</text><text x="857.5" y="0" dx="0em" dy="0.95em" style="text-anchor: middle; visibility: inherit; font-family: &quot;Helvetica Neue&quot;, sans-serif; font-size: 12px; font-weight: 200;" fill="rgb(50, 49, 63)" stroke="none" stroke-width="1px">800k</text><text x="1029" y="0" dx="0em" dy="0.95em" style="text-anchor: middle; visibility: inherit; font-family: &quot;Helvetica Neue&quot;, sans-serif; font-size: 12px; font-weight: 200;" fill="rgb(50, 49, 63)" stroke="none" stroke-width="1px">1M</text><text x="1200.5" y="0" dx="0em" dy="0.95em" style="text-anchor: middle; visibility: inherit; font-family: &quot;Helvetica Neue&quot;, sans-serif; font-size: 12px; font-weight: 200;" fill="rgb(50, 49, 63)" stroke="none" stroke-width="1px">1.2M</text><text x="1372" y="0" dx="0em" dy="0.95em" style="text-anchor: middle; visibility: inherit; font-family: &quot;Helvetica Neue&quot;, sans-serif; font-size: 12px; font-weight: 200;" fill="rgb(50, 49, 63)" stroke="none" stroke-width="1px">1.4M</text><text x="1543.5" y="0" dx="0em" dy="0.95em" style="text-anchor: middle; visibility: inherit; font-family: &quot;Helvetica Neue&quot;, sans-serif; font-size: 12px; font-weight: 200;" fill="rgb(50, 49, 63)" stroke="none" stroke-width="1px">1.6M</text><text x="1715" y="0" dx="0em" dy="0.95em" style="text-anchor: middle; visibility: inherit; font-family: &quot;Helvetica Neue&quot;, sans-serif; font-size: 12px; font-weight: 200;" fill="rgb(50, 49, 63)" stroke="none" stroke-width="1px">1.8M</text><text x="1886.5" y="0" dx="0em" dy="0.95em" style="text-anchor: middle; visibility: inherit; font-family: &quot;Helvetica Neue&quot;, sans-serif; font-size: 12px; font-weight: 200;" fill="rgb(50, 49, 63)" stroke="none" stroke-width="1px">2M</text><text x="2058" y="0" dx="0em" dy="0.95em" style="text-anchor: middle; visibility: hidden; font-family: &quot;Helvetica Neue&quot;, sans-serif; font-size: 12px; font-weight: 200;" fill="rgb(50, 49, 63)" stroke="none" stroke-width="1px">2.2M</text></g><line x1="0" y1="0" x2="2058" y2="0" fill="rgb(0, 0, 0)" stroke="rgb(204, 204, 204)" stroke-width="1px"></line></g></g></g></g></svg>